# xmcd CD database file
#
# Track frame offsets:
#	150
#	7019
#	28607
#	53091
#	64750
#	93920
#	115684
#	127516
#	154405
#	180822
#	204539
#	219337
#
# Disc length: 3143 seconds
#
# Revision: 0
# Processed by: cddbd v1.5.2PL0 Copyright (c) Steve Scherf et al.
# Submitted via: CDex 1.70beta2
#
DISCID=900c450c
DTITLE=Nathan Haines - Music for Cocktail Lovers
DYEAR=2008
DGENRE=Jazz
TTITLE0=Cocktails
TTITLE1=Thorne Bay Bossa
TTITLE2=Give It Away
TTITLE3=International Flight
TTITLE4=Poinciana
TTITLE5=Chan's Song
TTITLE6=Brazil
TTITLE7=Feelin' Good
TTITLE8=Pont Des Arts
TTITLE9=Court and Spark
TTITLE10=O Sapo
TTITLE11=Frontin'
EXTD=YEAR: 2008
EXTT0=
EXTT1=
EXTT2=
EXTT3=
EXTT4=
EXTT5=
EXTT6=
EXTT7=
EXTT8=
EXTT9=
EXTT10=
EXTT11=
PLAYORDER=
